<?xml version="1.0" encoding="utf-8"?>
<svg width="506pt" height="532pt" viewBox="0 0 506 532" version="1.1" xmlns="http://www.w3.org/2000/svg">
  <g id="surface1" transform="matrix(2.527181, 0, 0, 2.651434, -671.704224, -878.454041)" style="">
    <path style=" stroke:none;fill-rule:evenodd;fill:rgb(65.818787%,63.867188%,59.959412%);fill-opacity:1;" d="M 365.765625 331.753906 C 420.921875 331.753906 465.636719 376.464844 465.636719 431.621094 C 465.636719 486.78125 420.921875 531.492188 365.765625 531.492188 C 310.609375 531.492188 265.894531 486.78125 265.894531 431.621094 C 265.894531 376.464844 310.609375 331.753906 365.765625 331.753906 Z M 365.765625 341.847656 C 415.347656 341.847656 455.539063 382.042969 455.539063 431.621094 C 455.539063 481.203125 415.347656 521.398438 365.765625 521.398438 C 316.183594 521.398438 275.992188 481.203125 275.992188 431.621094 C 275.992188 382.042969 316.183594 341.847656 365.765625 341.847656 "/>
    <path style=" stroke:none;fill-rule:evenodd;fill:rgb(65.818787%,63.867188%,59.959412%);fill-opacity:1;" d="M 346.15625 503.164063 C 343.726563 502.683594 335.109375 502.136719 332.769531 487.976563 L 332.769531 466.507813 C 332.769531 450.613281 307.558594 453.867188 298.082031 445.132813 C 290.304688 437.960938 291.335938 409.445313 313.832031 380.632813 C 314.640625 384.1875 314.382813 387.472656 314.894531 390.589844 C 322.707031 389.441406 334.292969 392.097656 345.425781 394.441406 C 339.75 390.640625 331.375 386.691406 323.824219 383.492188 C 324.066406 380.542969 324.054688 377.660156 323.449219 371.867188 C 345.527344 357.699219 383.550781 354.816406 409.101563 371.492188 C 407.761719 373.320313 401.050781 378.105469 399.949219 382.367188 C 402.296875 382.359375 409.375 378.515625 415.324219 375.242188 C 420.820313 381.28125 437.675781 395.21875 437.835938 425.804688 C 437.933594 444.5 429.460938 449.738281 415.398438 452.378906 C 404.722656 454.386719 399.113281 459.359375 398.824219 465.242188 L 397.699219 488.117188 C 397.320313 495.832031 394.976563 499.890625 384.949219 502.742188 C 384.699219 494.703125 384.449219 480.027344 382.511719 478.742188 C 380.351563 480.917969 379.523438 492.058594 378.425781 498.464844 C 375.011719 498.730469 371.453125 498.394531 368.261719 497.867188 C 368.023438 492.734375 367.457031 479.214844 365.261719 477.992188 C 363 480.652344 363.964844 494.792969 363.199219 501.054688 C 359.882813 501.992188 357.164063 502.109375 353.699219 502.074219 C 352.507813 495.683594 350.335938 482.019531 347.886719 480.886719 C 345.59375 483.238281 346.351563 494.359375 346.15625 503.164063 Z M 355.183594 454.269531 C 355.421875 446.867188 357.007813 441.34375 361.746094 437.019531 C 361.296875 443.207031 361.839844 450.734375 362.496094 455.28125 C 363.574219 460.609375 365.046875 461.605469 367.222656 455.59375 C 368.554688 451.511719 368.976563 443.628906 368.871094 437.394531 C 373.859375 441.894531 375.097656 448.792969 375.058594 454.269531 L 375.058594 467.769531 C 366.183594 464.46875 363.007813 465.519531 355.183594 467.769531 Z M 326.308594 409.078125 C 309.585938 409.964844 305.933594 427.003906 308.058594 434.578125 C 312.222656 441.457031 345.507813 441.128906 350.570313 436.003906 C 353.632813 431.066406 348.742188 407.890625 326.308594 409.078125 Z M 402.050781 409.964844 C 393.542969 409.695313 377.132813 415.878906 379.746094 435.328125 C 387.457031 444.9375 417.066406 441.871094 422.675781 434.339844 C 424.351563 425.988281 422.117188 410.597656 402.050781 409.964844 "/>
  </g>
</svg>