<?xml version="1.0" encoding="utf-8"?>
<svg width="506pt" height="532pt" viewBox="0 0 506 532" version="1.1" xmlns="http://www.w3.org/2000/svg">
  <g id="surface1">
    <path style="stroke: none; fill-rule: evenodd; fill: rgb(28, 145, 201); fill-opacity: 1;" d="M 253.17 0.959 C 392.56 0.959 505.562 119.671 505.562 266.116 C 505.562 412.56 392.56 531.282 253.17 531.282 C 113.78 531.282 0.777 412.56 0.777 266.116 C 0.777 119.671 113.78 0.959 253.17 0.959 Z M 253.17 27.759 C 378.473 27.759 480.044 134.482 480.044 266.116 C 480.044 397.76 378.473 504.472 253.17 504.472 C 127.867 504.472 26.296 397.76 26.296 266.116 C 26.296 134.482 127.867 27.759 253.17 27.759"/>
    <path style="stroke: none; fill-rule: evenodd; fill: rgb(28, 145, 201); fill-opacity: 1;" d="M 307.514 47.95 C 288.314 128.451 290.232 161.349 323.618 193.915 C 388.993 257.677 404.574 298.337 401.324 345.714 C 396.34 418.419 326.914 463.646 254.951 465.938 C 167.63 468.734 119.105 413.778 105.67 355.499 C 95.038 309.432 99.849 258.244 147.212 187.122 C 186.555 128.027 239.79 91.035 307.514 47.95 Z M 336.613 279.082 C 350.55 275.982 368.904 295.114 375.338 319.307 C 381.758 343.497 368.552 362.282 349.365 362.662 C 330.169 363.046 317.016 349.832 315.749 325.946 C 314.482 302.061 322.684 282.182 336.613 279.082"/>
  </g>
</svg>