<?xml version="1.0" encoding="utf-8"?>
<svg width="506pt" height="532pt" viewBox="0 0 506 532" version="1.1" xmlns="http://www.w3.org/2000/svg">
  <g id="surface1">
    <path style="stroke: none; fill-rule: evenodd; fill: rgb(28, 201, 64); fill-opacity: 1;" d="M 253.194 0.585 C 392.383 0.585 505.222 119.624 505.222 266.483 C 505.222 413.33 392.383 532.368 253.194 532.368 C 114.007 532.368 1.167 413.33 1.167 266.483 C 1.167 119.624 114.007 0.585 253.194 0.585 Z M 253.194 27.46 C 378.316 27.46 479.742 134.474 479.742 266.483 C 479.742 398.479 378.316 505.495 253.194 505.495 C 128.073 505.495 26.649 398.479 26.649 266.483 C 26.649 134.474 128.073 27.46 253.194 27.46"/>
    <path style="stroke: none; fill-rule: evenodd; fill: rgb(28, 201, 64); fill-opacity: 1;" d="M 163.317 431.284 C 239.308 420.899 248.15 318.22 186.233 334.023 C 168.827 339.555 155.223 353.569 122.798 354.955 C 74.394 352.635 47.136 301.915 86.558 263.916 C 60.1 237.963 68.445 195.893 109.215 182.294 C 84.703 132.809 128.066 76.54 182.609 111.142 C 205.924 43.972 265.157 39.188 299.499 87.077 C 331.945 74.72 367.038 77.499 377.06 130.815 C 397.648 134.467 411.441 146.625 400.541 174.516 C 430.991 190.246 437.679 220.964 422.09 253.626 C 447.448 288.993 440.263 333.875 378.017 334.127 C 285.058 283.764 255.538 402.701 354.781 428.448 C 318.212 426.744 310.258 432.319 321.337 472.566 C 268.481 441.241 237.651 436.839 208.191 471.874 C 210.835 441.575 202.621 426.984 163.317 431.284 Z M 220.667 300.923 C 208.339 300.867 194.205 299.32 187.201 297.052 C 179.427 294.527 173.118 287.53 175.773 279.959 C 178.429 272.385 186.791 273.353 194.278 276.847 C 201.751 280.341 210.903 288.673 220.667 300.923 Z M 224.747 251.469 C 214.807 247.022 206.97 245.062 201.923 240.729 C 196.311 235.91 191.89 225.778 196.074 220.616 C 200.244 215.442 208.898 219.568 214.007 225.063 C 219.116 230.562 220.148 238.064 224.747 251.469 Z M 249.138 220.029 C 245.964 213.817 243.299 210.705 242.782 206.419 C 242.211 201.669 244.437 194.914 248.081 194.799 C 251.724 194.683 254.728 199.974 254.849 204.769 C 254.959 209.576 252.503 212.584 249.138 220.029 Z M 288.562 245.177 C 295.138 237.432 302.354 234.78 305.041 229.181 C 308.013 222.966 307.883 211.879 302.904 209.496 C 297.924 207.097 291.055 213.63 289.929 220.604 C 288.651 228.406 288.033 232.512 288.562 245.177 Z M 294.969 291.623 C 307.242 290.401 320.86 291.091 327.435 287.061 C 334.561 282.69 339.111 275.408 335.929 268.112 C 332.746 260.816 324.472 262.578 317.275 266.775 C 310.071 270.971 303.824 278.485 294.969 291.623"/>
  </g>
</svg>