<?xml version="1.0" encoding="utf-8"?>
<svg width="506pt" height="532pt" viewBox="0 0 506 532" version="1.1" xmlns="http://www.w3.org/2000/svg">
  <g id="surface1">
    <path style="stroke: none; fill-rule: evenodd; fill: rgb(255, 102, 0); fill-opacity: 1;" d="M 253.236 0.404 C 392.424 0.404 505.264 118.961 505.264 265.203 C 505.264 411.444 392.424 530.001 253.236 530.001 C 114.047 530.001 1.208 411.444 1.208 265.203 C 1.208 118.961 114.047 0.404 253.236 0.404 Z M 253.236 27.178 C 378.357 27.178 479.781 133.742 479.781 265.203 C 479.781 396.665 378.357 503.229 253.236 503.229 C 128.113 503.229 26.69 396.665 26.69 265.203 C 26.69 133.742 128.113 27.178 253.236 27.178"/>
    <path style="stroke: none; fill-rule: evenodd; fill: rgb(255, 102, 0); fill-opacity: 1;" d="M 149.194 103.473 C 134.745 99.617 126.915 119.226 107.613 132.625 C 123.087 94.018 137.023 72.692 167.509 70.536 C 213.809 67.267 206.688 120.198 184.852 117.487 C 166.535 115.217 157.527 117.638 143.866 139.74 C 141.998 131.556 143.816 123.931 148.598 119.051 C 153.379 114.172 156.09 106.002 149.194 103.473"/>
    <path style="stroke: none; fill-rule: evenodd; fill: rgb(255, 102, 0); fill-opacity: 1;" d="M 259.138 201.082 C 246.942 199.152 225.958 193.051 204.964 142.339 C 212.742 147.869 227.098 154.517 241.056 154.348 C 255.023 154.182 297.744 135.1 301.056 171.947 C 302.761 190.883 285.524 205.261 259.138 201.082"/>
    <path style="stroke: none; fill-rule: evenodd; fill: rgb(255, 102, 0); fill-opacity: 1;" d="M 324.113 67.658 C 260.364 38.895 230.41 42.006 159.525 58.851 C 205.991 62.796 254.407 65.65 256.446 94.081 C 256.738 101.283 249.6 118.6 212.789 103.774 C 217.734 117.281 229.887 127.478 261.684 128.44 C 287.299 128.648 299.656 117.787 317.13 121.168 C 335.642 124.735 360.877 141.87 345.941 165.645 C 339.392 159.853 324.113 138.418 295.075 140.986 C 334.592 170.128 315.324 195.486 331.754 202.861 C 356.741 214.064 359.91 225.326 359.91 242.943 C 360.072 255.533 355.162 272.222 346.814 272.003 C 337.64 271.716 333.717 262.609 338.959 226.21 C 331.968 244.926 317.94 256.062 309.208 270.154 C 297.203 288.437 295.086 309.655 282.64 323.968 C 276.474 330.767 262.777 330.72 268.232 312.957 C 275.954 292.051 295.235 282.36 309.706 260.111 C 320.983 242.425 325.054 227.595 324.555 207.711 C 313.461 221.725 304.976 236.404 264.313 239.194 C 234.912 238.952 226.135 232.07 202.646 231.037 C 179.874 228.905 81.146 241.21 72.565 331.34 C 65.766 417.962 165.459 480.889 237.674 479.869 C 264.266 480.351 283.004 477.748 306.651 463.136 C 330.24 448.777 337.209 437.012 377.372 430.541 C 367.245 423.789 359.367 420.669 339.392 420.865 C 330.047 420.68 322.658 424.671 305.786 423.936 C 292.576 422.949 290.415 406.722 305.786 400.165 C 321.132 393.602 342.471 402.638 367.12 403.041 C 430.797 404.429 429.783 349.381 464.685 334.105 C 446.77 331.296 433.524 336.225 420.598 343.784 C 376.805 369.379 363.071 351.433 382.186 338.508 C 391.925 333.371 401.68 330.205 411.425 323.096 C 432.025 306.064 455.547 258.825 455.954 224.879 C 456.319 195.118 441.985 152.982 414.814 129.392 C 401.271 117.649 401.251 111.09 396.588 94.081 C 391.643 112.947 396.951 134.462 408.152 153.318 C 415.29 167.158 402.987 180.988 399.201 168.077 C 389.891 137.248 384.071 101.801 324.113 67.658"/>
  </g>
</svg>