<?xml version="1.0" standalone="no"?>
<!DOCTYPE svg PUBLIC "-//W3C//DTD SVG 20010904//EN"
 "http://www.w3.org/TR/2001/REC-SVG-20010904/DTD/svg10.dtd">
<svg version="1.0" xmlns="http://www.w3.org/2000/svg"
 width="321.000000pt" height="329.000000pt" viewBox="0 0 321.000000 329.000000"
 preserveAspectRatio="xMidYMid meet">

<g transform="translate(0.000000,329.000000) scale(0.100000,-0.100000)"
fill="#000000" stroke="none">
<path d="M2903 3223 c-10 -4 -95 -113 -128 -164 -58 -91 -95 -139 -140 -182
-50 -48 -115 -86 -115 -68 0 13 -95 34 -146 33 -24 -1 -55 -9 -70 -18 -17 -12
-44 -17 -82 -16 -61 0 -130 32 -256 115 -31 20 -60 37 -65 37 -4 0 -25 13 -46
30 -20 16 -60 41 -89 55 -28 15 -58 30 -66 35 -39 23 -136 61 -165 64 -18 2
-44 10 -57 17 -36 20 -202 19 -320 -1 -95 -16 -170 -46 -190 -75 -4 -5 -8 -6
-8 -2 0 11 -70 -43 -70 -54 0 -4 -14 -23 -31 -41 -37 -41 -68 -96 -92 -168
-19 -58 -34 -160 -23 -160 3 0 23 11 44 24 20 14 57 30 81 36 64 17 198 14
246 -5 22 -9 49 -19 60 -22 22 -7 165 -79 204 -103 357 -216 776 -600 1052
-965 96 -126 239 -344 239 -364 0 -8 13 -42 29 -75 69 -147 74 -249 16 -395
l-24 -61 24 0 c34 0 128 21 141 31 6 5 29 15 50 23 54 19 175 111 196 150 9
17 25 54 34 81 9 28 20 55 24 60 38 53 48 310 17 423 -21 78 -92 231 -155 332
-53 85 -67 102 -76 92 -4 -3 -4 0 -1 9 3 9 -13 43 -38 81 -24 37 -52 94 -62
127 -19 63 -19 58 16 213 12 53 11 62 -9 109 l-21 51 20 28 c11 15 44 45 72
66 29 21 77 59 109 84 31 25 70 55 86 68 38 29 45 56 21 78 -11 10 -33 42 -50
71 -17 29 -36 59 -43 66 -21 21 -77 145 -83 185 -10 64 -24 80 -60 65z"/>
<path d="M856 2583 c-123 -14 -441 -347 -581 -606 -134 -249 -201 -410 -221
-527 -38 -224 -39 -364 -4 -550 6 -36 14 -76 17 -90 5 -29 13 -60 47 -185 13
-49 27 -106 30 -125 3 -19 10 -53 16 -75 16 -66 12 -212 -6 -251 -9 -19 -14
-37 -12 -39 3 -3 24 2 48 10 41 14 199 23 217 12 4 -3 51 -12 103 -21 52 -9
142 -30 200 -47 136 -40 120 -37 305 -60 235 -30 356 -18 595 58 48 15 225 88
250 104 8 4 31 16 50 26 71 34 295 187 381 259 133 113 205 189 248 262 33 56
40 80 46 142 7 80 -8 169 -39 227 -9 18 -16 36 -16 42 0 5 -16 36 -36 68 -19
32 -40 67 -47 78 -36 59 -105 156 -139 195 -122 140 -181 203 -353 378 -301
305 -520 486 -730 602 -199 111 -252 127 -369 113z m209 -272 c10 -6 16 -7 38
-10 16 -2 99 -80 122 -114 24 -36 14 -47 -97 -102 -195 -97 -341 -213 -438
-350 -125 -175 -211 -317 -235 -385 -8 -25 -19 -54 -24 -65 -30 -63 -51 -120
-51 -135 0 -9 -3 -20 -7 -24 -10 -10 -33 -78 -33 -101 -1 -11 -7 -38 -15 -60
-17 -44 -38 -166 -36 -205 1 -14 -2 -20 -8 -15 -13 15 -41 105 -41 132 0 14
-5 33 -10 43 -11 20 -15 286 -5 330 3 14 12 59 20 100 7 41 16 82 19 90 3 8 7
27 10 41 2 15 16 51 30 81 14 30 26 58 26 61 0 13 74 164 109 222 164 274 346
453 481 475 45 8 126 3 145 -9z"/>
</g>
</svg>
