<?xml version="1.0" standalone="no"?>
<!DOCTYPE svg PUBLIC "-//W3C//DTD SVG 20010904//EN"
 "http://www.w3.org/TR/2001/REC-SVG-20010904/DTD/svg10.dtd">
<svg version="1.0" xmlns="http://www.w3.org/2000/svg"
 width="181.000000pt" height="180.000000pt" viewBox="0 0 181.000000 180.000000"
 preserveAspectRatio="xMidYMid meet">

<g transform="translate(0.000000,180.000000) scale(0.100000,-0.100000)"
fill="#000000" stroke="none">
<path d="M820 1788 c-35 -5 -66 -10 -67 -12 -3 -3 59 -335 97 -520 11 -55 17
-103 13 -107 -5 -3 -24 -12 -45 -18 -54 -18 -122 -82 -147 -141 -12 -27 -28
-50 -35 -50 -8 0 -99 20 -202 45 -104 25 -238 57 -297 71 -60 14 -110 24 -111
22 -8 -8 -26 -166 -26 -222 0 -147 51 -329 127 -451 55 -87 97 -145 105 -142
4 1 94 86 200 188 262 252 266 255 286 241 86 -61 105 -67 195 -67 l87 1 20
-66 c10 -36 33 -114 50 -175 17 -60 52 -172 76 -248 52 -159 40 -153 173 -86
112 56 189 110 273 192 43 41 140 184 172 250 51 109 51 114 19 121 -15 4 -91
27 -168 51 -77 23 -201 62 -275 84 -192 59 -179 51 -173 105 9 73 -5 131 -43
186 l-35 51 237 235 c134 132 233 238 228 243 -127 110 -309 195 -462 216 -81
11 -200 12 -272 3z m191 -743 c74 -48 102 -129 75 -212 -20 -60 -66 -107 -126
-128 -76 -27 -146 -4 -203 68 -54 66 -48 182 12 237 79 72 167 85 242 35z"/>
</g>
</svg>
